<svg width="1440" height="340" xmlns="http://www.w3.org/2000/svg">
    <path d="M1440 0v200c-121.6 17.067-243.2 34.133-429 29-185.8-5.133-435.8-32.467-615-41-179.2-8.533-287.6 1.733-396 12V0Z" style="display:inline;opacity:1;fill:#3b4252;fill-opacity:1"/>
    <g style="display:inline">
        <path style="opacity:1;fill:none;fill-opacity:1;stroke:#e5e9f0;stroke-width:2.02174;stroke-linecap:round;stroke-linejoin:round;stroke-dasharray:none;stroke-opacity:1" d="m707 173.033-13.02-7.516v-15.034l13.02-7.516 13.02 7.516v15.034z" transform="translate(-10.015 -113.497) scale(1.48163)"/>
        <path style="fill:none;stroke:#e5e9f0;stroke-width:2.99547;stroke-linecap:round;stroke-linejoin:round" d="m683.829 244.016-19.29-11.137v-22.274l19.29-11.137 4.34 18.113 14.95 4.16v11.138z"/>
        <path style="fill:none;fill-opacity:1;stroke:#e5e9f0;stroke-width:2.02174;stroke-linecap:round;stroke-linejoin:round;stroke-dasharray:none;stroke-opacity:1" d="m707 173.033-13.02-7.516v-15.034l13.02-7.516 13.02 7.516v15.034z" transform="translate(12.662 -152.049) scale(1.48163)"/>
        <path style="fill:none;fill-opacity:1;stroke:#e5e9f0;stroke-width:2.02174;stroke-linecap:round;stroke-linejoin:round;stroke-dasharray:none;stroke-opacity:1" d="m707 173.033-13.02-7.516v-15.034l13.02-7.516 13.02 7.516v15.034z" transform="translate(35.34 -93.497) scale(1.48163)"/>
        <path style="fill:none;fill-opacity:1;stroke:#e5e9f0;stroke-width:2.02174;stroke-linecap:round;stroke-linejoin:round;stroke-dasharray:none;stroke-opacity:1" d="m707 173.033-13.02-7.516v-15.034l13.02-7.516 13.02 7.516v15.034z" transform="translate(80.693 -113.497) scale(1.48163)"/>
        <path style="fill:none;fill-opacity:1;stroke:#e5e9f0;stroke-width:2.02174;stroke-linecap:round;stroke-linejoin:round;stroke-dasharray:none;stroke-opacity:1" d="m707 173.033-13.02-7.516v-15.034l13.02-7.516 13.02 7.516v15.034z" transform="matrix(-.70315 0 0 .70315 1734.712 47.111)"/>
        <path style="fill:none;fill-opacity:1;stroke:#e5e9f0;stroke-width:2.02174;stroke-linecap:round;stroke-linejoin:round;stroke-dasharray:none;stroke-opacity:1" d="m707 173.033-13.02-7.516v-15.034l13.02-7.516 13.02 7.516v15.034z" transform="matrix(-.70315 0 0 .70315 1723.95 28.816)"/>
        <path style="fill:none;fill-opacity:1;stroke:#e5e9f0;stroke-width:2.02174;stroke-linecap:round;stroke-linejoin:round;stroke-dasharray:none;stroke-opacity:1" d="m707 173.033-13.02-7.516v-15.034l13.02-7.516 13.02 7.516v15.034z" transform="matrix(-.70315 0 0 .70315 1713.188 47.111)"/>
        <path style="fill:none;fill-opacity:1;stroke:#e5e9f0;stroke-width:2.02174;stroke-linecap:round;stroke-linejoin:round;stroke-dasharray:none;stroke-opacity:1" d="m707 173.033-13.02-7.516v-15.034l13.02-7.516 13.02 7.516v15.034z" transform="matrix(-.70315 0 0 .70315 1691.664 47.111)"/>
        <path style="fill:none;fill-opacity:1;stroke:#e5e9f0;stroke-width:2.02174;stroke-linecap:round;stroke-linejoin:round;stroke-dasharray:none;stroke-opacity:1" d="m707 173.033-13.02-7.516v-15.034l13.02-7.516 13.02 7.516v15.034z" transform="matrix(-.47116 0 0 .47116 1483.057 107.59)"/>
        <path style="fill:none;fill-opacity:1;stroke:#e5e9f0;stroke-width:2.02174;stroke-linecap:round;stroke-linejoin:round;stroke-dasharray:none;stroke-opacity:1" d="m707 173.033-13.02-7.516v-15.034l13.02-7.516 13.02 7.516v15.034z" transform="matrix(-.47116 0 0 .47116 1468.634 107.59)"/>
        <path style="fill:none;stroke:#e5e9f0;stroke-width:3;stroke-linecap:round;stroke-linejoin:round;stroke-dasharray:none" d="M176.062 216.976h72.778l6.03 10.673h-84.838z"/>
        <path style="fill:none;stroke:#e5e9f0;stroke-width:3;stroke-linecap:round;stroke-linejoin:round;stroke-dasharray:none" transform="rotate(-7.813)" d="M146.206 170.205h10.798v65.894h-10.798z"/>
        <path style="fill:none;stroke:#e5e9f0;stroke-width:3;stroke-linecap:round;stroke-linejoin:round;stroke-dasharray:24,6,3,6;stroke-dashoffset:0" d="M192.071 203.914h51.774v8.86h-51.774z"/>
        <path style="fill:none;stroke:#e5e9f0;stroke-width:3;stroke-linecap:round;stroke-linejoin:round;stroke-dasharray:24,6,3,6;stroke-dashoffset:0" transform="rotate(3.235)" d="M205.336 170.866h15.228v18.273h-15.228z"/>
        <path style="fill:none;stroke:#e5e9f0;stroke-width:3;stroke-linecap:round;stroke-linejoin:round;stroke-dasharray:24,6,3,6;stroke-dashoffset:0" transform="rotate(-7.24)" d="M190.442 211.4h26.579v15.505h-26.579z"/>
        <path style="fill:none;stroke:#e5e9f0;stroke-width:3;stroke-linecap:round;stroke-linejoin:round;stroke-dasharray:24,6,3,6;stroke-dashoffset:0" transform="rotate(3.482)" d="M212.023 158.079h28.517v8.029h-28.517z"/>
        <path style="fill:none;stroke:#e5e9f0;stroke-width:3;stroke-linecap:round;stroke-linejoin:round;stroke-dasharray:24,6,3,6;stroke-dashoffset:0" d="M192.204 148.788h52.062v19.393h-52.062z"/>
    </g>
    <circle style="fill:none;fill-opacity:1;stroke:#e5e9f0;stroke-width:3;stroke-linecap:round;stroke-linejoin:round;stroke-dasharray:none;stroke-dashoffset:0;stroke-opacity:1" cx="148.809" cy="182.239" r="7.02"/>
    <circle style="fill:none;fill-opacity:1;stroke:#e5e9f0;stroke-width:3;stroke-linecap:round;stroke-linejoin:round;stroke-dasharray:none;stroke-dashoffset:0;stroke-opacity:1" cx="267.912" cy="183.009" r="7.02"/>
    <circle style="fill:none;fill-opacity:1;stroke:#e5e9f0;stroke-width:3;stroke-linecap:round;stroke-linejoin:round;stroke-dasharray:none;stroke-dashoffset:0;stroke-opacity:1" cx="717.395" cy="204.919" r="7.02"/>
    <circle style="fill:none;fill-opacity:1;stroke:#e5e9f0;stroke-width:3;stroke-linecap:round;stroke-linejoin:round;stroke-dasharray:none;stroke-dashoffset:0;stroke-opacity:1" cx="529.665" cy="185.804" r="7.02"/>
    <circle style="fill:none;fill-opacity:1;stroke:#e5e9f0;stroke-width:3;stroke-linecap:round;stroke-linejoin:round;stroke-dasharray:none;stroke-dashoffset:0;stroke-opacity:1" cx="1086.28" cy="213.439" r="7.02"/>
    <path style="fill:none;stroke:#e5e9f0;stroke-width:2.81139;stroke-linecap:round;stroke-linejoin:round;stroke-dasharray:none;stroke-opacity:1" d="M452.65 120.186c69.34-14.453 141.355-15.962 211.239-4.426 61.278 10.116 121.14 30.166 183.192 32.796a329.644 329.644 0 0 0 92.205-9.15M719.825 151.648c57.868 18.544 119.493 25.275 180 19.662a453.358 453.358 0 0 0 108.322-23.683M657.702 89.005c-77.247-14.037-157.663-10.33-233.29 10.754-23.73 6.616-47.086 14.935-71.412 18.822a200.937 200.937 0 0 1-63.077.034"/>
    <path style="fill:#e5e9f0;fill-opacity:1;stroke:none;stroke-width:2.81139;stroke-linecap:round;stroke-linejoin:round;stroke-dasharray:none;stroke-opacity:1" d="M951.993 138.085c.444-.202.908-.34 1.366-.49 1.133-.377 2.277-.715 3.415-1.072 1.87-.6 3.73-1.247 5.59-1.893 1.883-.663 3.768-1.32 5.656-1.965 1.78-.61 1.028-3.49-.752-2.881a652.72 652.72 0 0 0-5.668 1.97 244.697 244.697 0 0 1-5.521 1.87c-1.149.36-2.302.7-3.446 1.081-.586.193-1.18.371-1.74.65-1.687.89-.587 3.62 1.1 2.73zM672.239 93.995c1.577.176 3.125.631 4.672 1.009a774.635 774.635 0 0 1 14.039 3.421c1.813.462 2.384-2.472.571-2.935a775.189 775.189 0 0 0-14.063-3.427c-1.735-.423-3.475-.951-5.252-1.074-1.857.026-1.825 3.032.033 3.006z"/>
    <path style="fill:none;fill-opacity:1;stroke:#e5e9f0;stroke-width:3.00094;stroke-linecap:round;stroke-linejoin:round;stroke-dasharray:none;stroke-opacity:1" d="M1171.352 97.183a855.698 855.698 0 0 1 159.155-12.676"/>
    <path style="fill:#e5e9f0;fill-opacity:1;stroke:none;stroke-width:3;stroke-linecap:round;stroke-linejoin:round;stroke-dasharray:none;stroke-dashoffset:0;stroke-opacity:1" d="M150.852 194.34c.104.998.097 2.002.06 3.003-.121 2.36-.83 4.612-1.646 6.81-1.053 2.6-2.339 5.094-3.644 7.572l-.529.984c-1.003 1.87 1.64 3.288 2.643 1.42l.54-1.006c1.366-2.594 2.71-5.206 3.805-7.93.92-2.5 1.705-5.062 1.829-7.743.039-1.14.046-2.28-.074-3.416-.215-2.11-3.2-1.805-2.984.305zM285.609 174.98a15.66 15.66 0 0 0-1.99.049c-.844.075-1.675.23-2.493.446-.981.262-1.872.745-2.727 1.28l-.393.26c-1.77 1.169-.116 3.671 1.654 2.502l.336-.223c.598-.379 1.218-.732 1.905-.921a11.748 11.748 0 0 1 3.498-.4c2.116.148 2.326-2.844.21-2.993zM282.22 170.02c.074.135.148.271.221.408.157.292.319.582.474.875.147.276.286.555.418.839.116.252.23.506.344.76l.085.191c.868 1.936 3.605.708 2.738-1.227l-.086-.192-.361-.797c-.154-.33-.315-.655-.486-.975-.159-.3-.323-.597-.484-.895-.108-.201-.214-.403-.333-.598-1.14-1.79-3.67-.18-2.531 1.61zM286.788 180.42c0-.005-.018-.025-.015-.018.101.24.231.473.344.708.16.334.317.67.474 1.007.896 1.923 3.615.655 2.719-1.268-.162-.347-.324-.694-.49-1.04-.176-.368-.341-.746-.563-1.091-1.204-1.747-3.674-.043-2.47 1.703z"/>
    <path style="fill:#e5e9f0;fill-opacity:1;stroke:none;stroke-width:3;stroke-linecap:round;stroke-linejoin:round;stroke-dasharray:none;stroke-dashoffset:0;stroke-opacity:1" d="M287.94 185.366c-.061.044.112-.071.177-.112.236-.148.473-.293.71-.437.333-.2.674-.387 1.012-.577.362-.203.723-.408 1.082-.615l.816-.473c.156-.088.312-.176.472-.256.259-.106-.059.006-.122.021a1.23 1.23 0 0 1-.754-.108c-.051-.017-.173-.124-.051-.014.033.022.047.046.068.074 0 .003.01.009 0 .008 0-.002-.01-.01-.01-.01-.01-.005.01.017.013.025l.03.06c.032.061.056.125.08.19 0 .004 0 .01.01.014l.001.002a1.15 1.15 0 0 1-.054-.297c-.01-.3.083-.594.272-.826.15-.134-.01-.024-.057.004l-.567.308c-.22.117-.44.232-.66.35-.263.137-.523.282-.781.43-.237.138-.475.276-.713.41-.204.116-.409.228-.615.337-.181.094-.362.189-.541.285-.147.079-.29.163-.433.247-.034.028-.263.136-.086.052.334-.14.7-.103 1.025.036.038-.004.235.177.137.071a8.798 8.798 0 0 1-.179-.208c-.054-.066-.028-.03-.065-.095-.03-.046-.053-.096-.076-.145l-.072-.162.038.12c.087.384.031.815-.206 1.137-.042.058-.09.111-.137.166.017.025-.223.169-.127.12l.262-.133c.13-.067.26-.135.388-.205.094-.05.19-.097.285-.146.13-.07.258-.144.385-.219.086-.046.165-.105.252-.15.01-.003-.015.01-.023.015v.002c1.928-.886.675-3.612-1.253-2.726l-.104.05a7.34 7.34 0 0 0-.393.224c-.083.05-.167.098-.252.145-.105.056-.213.105-.317.163-.11.06-.221.119-.333.176-.116.06-.232.116-.346.178-.197.11-.39.231-.551.393-.06.069-.123.135-.178.207-.285.374-.365.87-.263 1.322.035.13.077.259.133.381.035.079.068.158.106.235.066.138.136.275.217.406.1.164.207.325.334.47.096.115.193.228.294.338.195.205.405.398.658.53.51.237.952.291 1.486.086.167-.072.329-.154.484-.248.111-.066.222-.132.336-.193.172-.092.344-.182.517-.273.233-.123.464-.249.694-.378.244-.14.488-.28.73-.421.229-.132.46-.26.693-.382.228-.121.458-.24.686-.363l.61-.332c.262-.15.52-.31.734-.527.342-.371.58-.804.573-1.326a2.205 2.205 0 0 0-.154-.74 4.795 4.795 0 0 0-.197-.451 3.45 3.45 0 0 0-.388-.627 3.352 3.352 0 0 0-.39-.413 2.775 2.775 0 0 0-.51-.386c-.373-.19-.768-.29-1.188-.222-.26.054-.51.134-.742.263-.207.105-.41.217-.612.332a449 449 0 0 0-.817.473c-.35.201-.7.401-1.052.598-.365.205-.732.407-1.09.623-.254.154-.507.309-.759.467-.175.11-.35.222-.51.354-1.624 1.364.305 3.662 1.93 2.298zM272.587 195.085c.187.057.367.132.543.218.292.155.573.329.848.512.361.263.72.532 1.067.813.393.321.777.652 1.156.99.415.373.801.775 1.178 1.185.366.404.706.829 1.027 1.268.29.396.537.822.768 1.255.254.48.486.972.704 1.47.214.512.413 1.03.609 1.55.173.477.331.96.485 1.444.133.421.255.845.355 1.275a9.385 9.385 0 0 1 .219 2.076c0 .29-.025.578-.06.865-.034.276-.086.549-.143.82a7.292 7.292 0 0 1-.208.76 5.25 5.25 0 0 1-.567 1.174c-.087.126-.181.248-.275.37-1.292 1.681 1.086 3.51 2.379 1.828.141-.185.282-.37.41-.563.184-.284.351-.579.5-.882.157-.33.299-.667.411-1.015.11-.348.213-.698.287-1.057.074-.357.14-.716.185-1.078.049-.41.084-.823.082-1.237a12.413 12.413 0 0 0-.298-2.745 20.498 20.498 0 0 0-.417-1.5 38.781 38.781 0 0 0-.538-1.596 46.849 46.849 0 0 0-.666-1.689 24.774 24.774 0 0 0-.81-1.689 13.346 13.346 0 0 0-.99-1.605 18.468 18.468 0 0 0-1.24-1.53 20.445 20.445 0 0 0-1.388-1.391c-.416-.372-.84-.736-1.272-1.089-.422-.34-.854-.667-1.296-.98-.39-.257-.786-.504-1.203-.713a6.861 6.861 0 0 0-.952-.379c-2.026-.628-2.915 2.237-.89 2.865zM277.449 216.498c-.375.175-.695.435-.992.717-.352.345-.612.76-.83 1.197-.218.433-.324.9-.378 1.378-.059.529.047 1.04.221 1.537.194.512.515.953.876 1.359a6.38 6.38 0 0 0 1.309 1.012c.453.257.929.467 1.417.647.53.189 1.077.315 1.626.432.619.131 1.248.204 1.877.262.717.05 1.436.075 2.155.084.727.01 1.453-.038 2.178-.078.618-.034 1.237-.07 1.855-.101a55.02 55.02 0 0 0 1.737-.092c.556-.036 1.112-.076 1.668-.112.52-.03 1.04-.062 1.56-.084l1.087-.05c2.119-.102 1.976-3.098-.143-2.998-.357.017-.715.035-1.072.05-.542.024-1.084.056-1.626.088-.557.036-1.114.076-1.671.113-.564.037-1.128.07-1.693.089-.624.032-1.247.067-1.87.102-.657.036-1.314.081-1.973.074a36.236 36.236 0 0 1-1.921-.072 13.011 13.011 0 0 1-1.528-.21 10.018 10.018 0 0 1-1.22-.315 6.567 6.567 0 0 1-.93-.42 3.446 3.446 0 0 1-.613-.45 1.44 1.44 0 0 1-.267-.36c-.031-.069-.065-.12-.054-.2a.904.904 0 0 1 .085-.362c.06-.13.127-.259.226-.366a.76.76 0 0 1 .191-.161c1.916-.91.629-3.62-1.287-2.71z"/>
    <path style="fill:#e5e9f0;fill-opacity:1;stroke:none;stroke-width:3;stroke-linecap:round;stroke-linejoin:round;stroke-dasharray:none;stroke-dashoffset:0;stroke-opacity:1" d="M266.013 209.223c.393.005.785.031 1.178.056.69.036 1.377.116 2.06.22.825.135 1.645.298 2.458.493.817.193 1.617.443 2.417.696.727.22 1.439.485 2.144.765.392.151.772.33 1.145.522 1.89.963 3.253-1.71 1.363-2.673a15.209 15.209 0 0 0-1.402-.638 30.31 30.31 0 0 0-2.347-.837c-.867-.274-1.737-.543-2.622-.753-.897-.213-1.8-.394-2.71-.541a24.206 24.206 0 0 0-2.319-.248c-.388-.025-.776-.054-1.166-.056-2.116-.14-2.316 2.852-.2 2.994zM157.385 193.938c.35-.2.696-.403 1.039-.613.687-.427 1.33-.92 1.949-1.44.818-.692 1.553-1.472 2.247-2.286a33.593 33.593 0 0 0 1.962-2.674c.586-.897 1.107-1.834 1.609-2.78.464-.876.881-1.775 1.286-2.679.277-.63.535-1.27.796-1.907.802-1.964-1.975-3.099-2.777-1.135-.249.607-.494 1.216-.757 1.816a41.773 41.773 0 0 1-1.198 2.5 32.962 32.962 0 0 1-1.454 2.52c-.55.824-1.127 1.629-1.753 2.397a16.596 16.596 0 0 1-1.892 1.932c-.504.426-1.028.829-1.588 1.18-.31.19-.625.374-.941.555-1.849 1.04-.377 3.655 1.472 2.614zM150.04 217.538c.149-.132.39-.326.574-.47.452-.357.931-.674 1.427-.963.583-.333 1.2-.596 1.832-.817.537-.183 1.089-.312 1.656-.324.387.004.758.083 1.114.23.158.089.384.184.447.371.073.23.071.471.065.71-.041.682-.216 1.347-.399 2.003-.257.884-.602 1.737-.956 2.585a55.598 55.598 0 0 1-1.319 2.822 48.22 48.22 0 0 1-1.29 2.4 51.416 51.416 0 0 1-1.105 1.812c-.31.487-.632.968-.962 1.443-.215.313-.105.147-.328.497-1.132 1.794 1.406 3.395 2.538 1.6.154-.247.069-.117.257-.389.352-.508.696-1.022 1.028-1.543.404-.637.8-1.28 1.177-1.932.48-.84.942-1.69 1.372-2.554.491-.99.967-1.986 1.4-3.002.402-.963.792-1.935 1.08-2.94.252-.916.48-1.846.507-2.801-.01-.867-.129-1.716-.623-2.454-.48-.632-1.063-1.134-1.81-1.427-.744-.278-1.515-.448-2.314-.428-.866.042-1.715.2-2.534.493-.811.289-1.606.626-2.352 1.058-.61.36-1.204.75-1.76 1.19-.36.282-.722.566-1.026.91-1.358 1.629.946 3.55 2.304 1.92zM142.877 217.35c-.238.306-.499.594-.754.886a28.26 28.26 0 0 1-1.63 1.712 50.187 50.187 0 0 1-2.373 2.143c-.901.77-1.844 1.486-2.789 2.199a75.85 75.85 0 0 1-5.128 3.529c-.573.356-1.15.708-1.722 1.068-1.796 1.129-.199 3.669 1.597 2.54.572-.36 1.149-.711 1.722-1.069a79.11 79.11 0 0 0 5.338-3.674c.993-.75 1.984-1.504 2.93-2.312a53.114 53.114 0 0 0 2.53-2.286 31.34 31.34 0 0 0 1.785-1.877c.315-.361.637-.717.924-1.1 1.244-1.718-1.186-3.477-2.43-1.759zM698.865 211.067c.243.462.568.875.89 1.283.605.73 1.25 1.423 1.911 2.101.954.947 1.974 1.823 3.006 2.683 1.12.934 2.329 1.75 3.566 2.518a28.721 28.721 0 0 0 3.53 1.82c1.06.446 2.166.767 3.278 1.055.457.112.914.224 1.37.339 2.058.516 2.788-2.394.73-2.91-.449-.113-.899-.223-1.349-.334-.963-.248-1.922-.522-2.842-.906a25.539 25.539 0 0 1-3.136-1.614c-1.12-.693-2.213-1.429-3.227-2.273-.953-.793-1.895-1.602-2.78-2.474a32.668 32.668 0 0 1-1.707-1.871c-.18-.225-.333-.505-.53-.712v.024c-.9-1.922-3.617-.65-2.717 1.271z"/>
    <circle style="fill:#e5e9f0;stroke:#000" cx="696.133" cy="209.289" r=".066"/>
    <path style="fill:#e5e9f0;fill-opacity:1;stroke:none;stroke-width:2.82898;stroke-linecap:round;stroke-linejoin:round;stroke-dasharray:none;stroke-dashoffset:0;stroke-opacity:1" d="M718.516 217.235c.14.13.295.376.404.563.355.628.59 1.298.783 1.977.257.964.364 1.951.452 2.936.091 1.15.099 2.305.081 3.457a63.023 63.023 0 0 1-.203 3.573 66.24 66.24 0 0 1-.358 3.32c-.12.917-.268 1.83-.44 2.741-.025.134-.058.266-.082.4-.378 1.856 2.574 2.331 2.952.475.026-.145.062-.288.088-.433.18-.956.341-1.915.463-2.879.148-1.143.28-2.289.37-3.437.097-1.24.183-2.481.21-3.724.018-1.236.01-2.473-.091-3.707-.104-1.136-.233-2.274-.537-3.384-.258-.888-.572-1.764-1.048-2.58-.324-.524-.683-1.034-1.216-1.412-1.68-1.15-3.51.964-1.83 2.114z"/>
    <circle style="fill:#e5e9f0;stroke:#000" cx="717.803" cy="235.81" r=".066"/>
    <path style="fill:#e5e9f0;fill-opacity:1;stroke:none;stroke-width:3;stroke-linecap:round;stroke-linejoin:round;stroke-dasharray:none;stroke-dashoffset:0;stroke-opacity:1" d="M715.861 235.006a8.928 8.928 0 0 0-1.393-.393c-.746-.148-1.508-.144-2.264-.103-.878.059-1.723.306-2.546.606-.895.332-1.6.902-2.177 1.65-.554.753-.765 1.63-.857 2.543-.064.966.088 1.925.274 2.87.197.925.464 1.834.742 2.738l.707 2.23c.164.52.323 1.04.483 1.56.626 2.027 3.492 1.142 2.866-.885-.162-.526-.322-1.053-.489-1.578l-.7-2.211a29.65 29.65 0 0 1-.668-2.442c-.133-.662-.252-1.333-.229-2.01.026-.366.066-.723.283-1.032.19-.305.471-.484.803-.618.542-.203 1.099-.378 1.679-.426.492-.03.989-.042 1.477.044.28.058.558.128.832.217 1.95.832 3.128-1.928 1.176-2.76zM716.938 241.282c-.115.415-.208.836-.294 1.258-.205.95-.14 1.912 0 2.864.206.987.632 1.925 1.362 2.637.159.154.337.287.505.43 1.078.835 2.364 1.137 3.681 1.35 1.474.206 2.963.266 4.448.324.99.032.498.017 1.476.045 2.12.06 2.207-2.938.086-2.999-.96-.028-.478-.013-1.446-.044-1.366-.053-2.736-.105-4.092-.289-.796-.124-1.593-.24-2.266-.72a1.889 1.889 0 0 1-.786-1.166c-.092-.61-.156-1.226-.024-1.836.071-.352.15-.703.244-1.05.57-2.043-2.321-2.848-2.89-.804zM526.539 197.234c-.102.677.068 1.346.238 1.996.287 1.011.742 1.962 1.203 2.903.498 1.011 1.073 1.98 1.672 2.934.613.967 1.3 1.883 1.99 2.794a41.213 41.213 0 0 0 2.244 2.663c.735.81 1.518 1.574 2.317 2.32.646.61 1.333 1.173 2.036 1.717.572.453 1.186.848 1.807 1.231.457.284.921.557 1.381.837.202.129.105.065.293.191 1.764 1.179 3.43-1.316 1.666-2.494-.262-.175-.128-.088-.4-.26-.455-.277-.913-.547-1.365-.827-.531-.328-1.058-.662-1.547-1.052-.63-.486-1.246-.99-1.825-1.538a36.203 36.203 0 0 1-2.14-2.14 38.132 38.132 0 0 1-2.077-2.46c-.638-.842-1.273-1.688-1.84-2.58-.544-.863-1.067-1.74-1.518-2.656-.376-.765-.754-1.536-.998-2.355-.06-.22-.109-.438-.156-.662-.01-.026.01-.073-.017-.078-.011-.002-.01.021-.01.031.364-2.09-2.591-2.605-2.956-.515zM535.307 223.017c-.122.518-.266 1.03-.422 1.538-.418 1.306-.915 2.584-1.434 3.852a49.63 49.63 0 0 1-2.083 4.402 63.836 63.836 0 0 1-2.21 3.757c-.68 1.071-1.44 2.088-2.21 3.095-.476.61-.954 1.216-1.423 1.83-1.29 1.684 1.094 3.507 2.383 1.822.469-.613.947-1.219 1.42-1.828.826-1.078 1.637-2.168 2.365-3.315a66.87 66.87 0 0 0 2.326-3.957 52.831 52.831 0 0 0 2.21-4.67c.552-1.353 1.082-2.717 1.525-4.11.159-.522.313-1.044.433-1.576.594-2.037-2.286-2.877-2.88-.84zM533.442 199.999c.455.283.896.586 1.33.901.737.552 1.425 1.165 2.098 1.791.69.645 1.303 1.364 1.897 2.095 1.339 1.646 3.666-.247 2.327-1.893-.683-.839-1.389-1.66-2.182-2.399-.763-.708-1.542-1.401-2.38-2.022a25.718 25.718 0 0 0-1.487-1.008c-1.792-1.134-3.396 1.401-1.603 2.535zM705.624 208.908c.15-.18.3-.359.443-.545.258-.33.412-.712.515-1.115.08-.362.095-.732.082-1.1-.016-.383-.1-.756-.196-1.125a11.578 11.578 0 0 0-.457-1.26c-.169-.407-.356-.806-.548-1.203-.195-.4-.41-.791-.64-1.173-.209-.34-.432-.67-.659-.996a12.43 12.43 0 0 0-.627-.836 3.588 3.588 0 0 0-1.028-.843c-.534-.276-1.111-.314-1.698-.26-.522.075-1.027.228-1.53.381-.525.159-1.054.306-1.58.467-.543.168-1.082.349-1.626.516-.525.16-1.047.328-1.571.49-.473.14-.942.293-1.397.483-.694.29-1.163.82-1.521 1.463-.33.677-.393 1.413-.389 2.153.03.79.167 1.57.307 2.346.151.8.31 1.598.476 2.395.143.69.285 1.38.432 2.068.115.528.228 1.057.34 1.586.09.4.176.802.257 1.205.067.412.189.805.36 1.185.296.579.8.938 1.368 1.216.429.197.89.3 1.352.387.317.06.638.089.96.117.14.013.283.019.423.04a.526.526 0 0 1-.158-.041c.192.1.402.147.614.179.525.053.98-.148 1.37-.48.112-.098.209-.212.304-.327 1.344-1.64-.977-3.541-2.321-1.9.01-.007.023-.013.032-.022.278-.207.62-.288.964-.25.048.007.495.14.295.076a2.522 2.522 0 0 0-.691-.207 9.85 9.85 0 0 0-.572-.057c-.223-.02-.448-.037-.669-.077a4.054 4.054 0 0 1-.612-.146c-.218-.096.025.064.04.183.012.075-.08-.283-.086-.306l-.033-.159c-.083-.415-.172-.83-.264-1.243l-.34-1.589c-.147-.681-.287-1.365-.429-2.048-.16-.771-.315-1.544-.461-2.318-.111-.613-.224-1.227-.26-1.85-.01-.244-.01-.487.049-.727.01-.07-.114-.006.034-.09.357-.159.737-.258 1.108-.379.525-.161 1.048-.33 1.573-.49.542-.167 1.08-.346 1.622-.514.525-.16 1.054-.307 1.58-.466.32-.1.643-.196.971-.268.104-.024-.012-.046-.052-.083.05.03.1.063.138.107.171.208.33.426.483.647.19.274.378.55.553.834.184.303.354.613.509.931.166.341.327.684.473 1.034.118.287.235.575.327.872.043.166.091.332.103.504.01.094.01.188-.01.282.037-.053.06-.091.013-.009-.113.156-.248.295-.366.447-1.35 1.637.966 3.545 2.315 1.908zM706.464 212.209c.293.13.57.29.848.45.46.264.906.55 1.34.852.5.354.958.758 1.402 1.176.313.293.608.603.902.914 1.454 1.544 3.638-.513 2.183-2.057-.336-.357-.675-.71-1.033-1.045-.552-.517-1.122-1.016-1.742-1.452a21.257 21.257 0 0 0-1.56-.99 12.16 12.16 0 0 0-1.03-.547c-1.909-.926-3.218 1.773-1.31 2.699z"/>
    <path style="fill:#e5e9f0;fill-opacity:1;stroke:none;stroke-width:3;stroke-linecap:round;stroke-linejoin:round;stroke-dasharray:none;stroke-dashoffset:0;stroke-opacity:1" d="M541.025 209.735c.26-.02.517-.066.775-.103.33-.043.656-.11.984-.167.307-.047.61-.116.919-.156.356-.053.713-.1 1.07-.142.358-.047.718-.079 1.077-.114.348-.034.694-.085 1.041-.123.232-.028.464-.047.697-.042.125.01-.012.006-.033.007-.15-.08-.117-.062-.038.062.139.222.258.455.368.692.14.31.272.624.395.94.128.34.245.685.362 1.029.106.31.2.625.302.937.088.265.163.534.24.803.078.277.139.56.201.84.051.224.09.45.112.678.011.13.02.259 0 .387a1.137 1.137 0 0 1-.083.314.411.411 0 0 1-.086.116c-.09.101-.195.19-.302.275-.142.106-.298.194-.451.283-.229.132-.456.266-.68.404-.145.072-.274.186-.426.242-.076.03-.157.045-.236.065-.11.02-.22.045-.331.065-.064.01-.127.025-.19.03-.26.008-.485.114-.717.217-1.859 1.022-.413 3.651 1.446 2.63-.202.083-.255.114-.474.142.159-.014.316-.04.474-.068.17-.032.338-.065.507-.103.27-.066.54-.14.792-.26.25-.12.488-.258.723-.403.207-.127.416-.25.625-.37.284-.167.568-.335.826-.542.266-.217.52-.448.74-.713.25-.315.468-.653.598-1.037a4.56 4.56 0 0 0 .227-.977 5.064 5.064 0 0 0 0-1.015 8.504 8.504 0 0 0-.167-1.013c-.075-.336-.148-.672-.243-1.003a20.652 20.652 0 0 0-.273-.914c-.106-.325-.204-.652-.315-.976a35.83 35.83 0 0 0-.407-1.153 22.118 22.118 0 0 0-.473-1.122 9.08 9.08 0 0 0-.592-1.09c-.285-.416-.609-.804-1.06-1.049-.413-.206-.849-.351-1.316-.35a7.822 7.822 0 0 0-1.067.06c-.336.036-.671.084-1.007.119-.378.037-.757.071-1.134.12-.375.044-.75.093-1.124.148-.344.048-.684.116-1.027.173-.303.053-.604.116-.91.155-.218.032-.436.072-.656.089-2.11.223-1.793 3.207.316 2.983z"/>
    <circle style="fill:#e5e9f0;stroke:#000" cx="1081.02" cy="200.006" r=".066"/>
    <path style="fill:#e5e9f0;fill-opacity:1;stroke:none;stroke-width:3;stroke-linecap:round;stroke-linejoin:round;stroke-dasharray:none;stroke-dashoffset:0;stroke-opacity:1" d="M248.069 189.612c.189.29.38.579.573.866.373.592.823 1.124 1.293 1.64.655.689 1.355 1.334 2.078 1.95.871.739 1.827 1.364 2.797 1.962 1.057.656 2.189 1.171 3.332 1.653 1.085.481 2.216.83 3.364 1.12 1.085.273 2.2.388 3.314.443.903.027 1.807.03 2.71.016 2.122-.035 2.072-3.035-.05-3-.838.014-1.678.01-2.517-.012-.917-.042-1.834-.134-2.726-.357-1.001-.25-1.986-.552-2.93-.975-1.003-.421-1.998-.868-2.925-1.443-.84-.516-1.67-1.055-2.426-1.692a24.425 24.425 0 0 1-1.806-1.689c-.372-.405-.729-.822-1.019-1.29-.2-.298-.397-.598-.594-.897-1.206-1.746-3.674-.04-2.468 1.705z"/>
    <path style="fill:#e5e9f0;fill-opacity:1;stroke:none;stroke-width:3;stroke-linecap:round;stroke-linejoin:round;stroke-dasharray:none;stroke-dashoffset:0;stroke-opacity:1" d="M253.39 188.084c-.01.009-.032.033-.022.027.061-.033.11-.084.165-.126 1.687-1.286-.133-3.672-1.82-2.385-.178.137-.358.272-.514.435-1.449 1.55.742 3.598 2.191 2.049zM246.732 193.556c.187-.223.411-.41.631-.599.243-.194.119-.096.375-.294 1.677-1.299-.16-3.67-1.837-2.372-.327.253-.163.123-.493.39-.372.321-.742.649-1.047 1.037-1.3 1.676 1.072 3.514 2.371 1.838zM259.527 229.879c.323.037.648.05.972.063.532.022 1.063.034 1.595.028a22.057 22.057 0 0 0 1.653-.098c.474-.05.947-.109 1.42-.168.466-.05.92-.148 1.363-.301.505-.199.905-.547 1.252-.954.415-.488.557-1.051.532-1.68-.095-.691-.523-1.183-1.056-1.59-.298-.215-.623-.39-.917-.611a2.335 2.335 0 0 1-.419-.484c-.178-.258-.354-.517-.55-.762-.328-.41-.775-.649-1.263-.812-.326-.093-.663-.13-.991-.209a7.759 7.759 0 0 0-1.008-.232c-.704-.098-1.323.134-1.886.54-.39.32-.694.725-.98 1.137-.274.401-.52.82-.762 1.24l-.732 1.263c-.167.302-.085.145-.247.471-.935 1.904 1.758 3.226 2.693 1.322.083-.175.035-.08.148-.285.247-.424.492-.85.738-1.274.2-.348.403-.696.628-1.03.112-.162.228-.32.352-.472-.118.043-.253.101-.375.058.257.018.498.14.75.184.26.06.52.113.783.152-.06-.046-.144-.1-.172-.155.167.181.275.413.43.604.308.428.65.83 1.073 1.15.297.22.608.417.92.615.133.085-.18-.32-.138-.486.01-.196.01-.435.148-.594.01-.01-.032.07-.017.036-.03.056-.046.059.033.04-.207.117-.483.084-.706.142a68.9 68.9 0 0 1-1.32.157c-.47.044-.94.078-1.413.086a27.738 27.738 0 0 1-2.446-.09c-2.12-.06-2.206 2.939-.085 2.999zM270.238 231.58c.055.004-.073.004.079.021.164.022.327.059.489.095.03.009.04.018.076.034 1.942.854 3.15-1.892 1.207-2.746a3.409 3.409 0 0 0-.633-.217 7.72 7.72 0 0 0-.842-.151c-.364-.034-.732-.044-1.09.05-2.06.505-1.347 3.419.714 2.914zM252.034 233.217c.32.032.64.059.96.076.382.017.763.051 1.146.067.247.008.494.03.74.049l.044.006c.01.002.01.003.015.005 2.091.353 2.59-2.605.5-2.958-.224-.035-.115-.021-.327-.044-.284-.022-.567-.046-.851-.055-.37-.015-.74-.05-1.11-.065-.311-.016-.62-.048-.93-.075-2.117-.132-2.304 2.862-.187 2.994zM264.62 206.59c-.612.519-.974 1.237-1.3 1.955-.483 1.146-.71 2.372-.908 3.593a130.099 130.099 0 0 0-.473 3.817 54.905 54.905 0 0 0-.265 3.041c-.126 2.118 2.87 2.296 2.995.178.057-.963.14-1.924.251-2.882.139-1.226.28-2.452.453-3.674.156-.965.321-1.938.687-2.85.095-.22.124-.3.233-.5.07-.127.11-.18.183-.294.01-.016.048-.054.03-.048-.038.014-.065.048-.097.071 1.703-1.265-.087-3.673-1.79-2.408zM308.692 229.487c.383.233.797.405 1.218.557.615.194 1.24.352 1.868.49.585.132 1.176.234 1.771.305.6.07 1.203.074 1.805.043a9.371 9.371 0 0 0 1.613-.236c.642-.149 1.203-.487 1.727-.874.557-.444.981-1.014 1.364-1.608a6.347 6.347 0 0 0 .743-1.56c.163-.512.168-1.042.11-1.57-.064-.453-.2-.89-.348-1.322-.14-.4-.294-.793-.446-1.187a11.414 11.414 0 0 0-.415-1.012c-.328-.655-.907-.99-1.612-1.093-.405-.038-.791.098-1.185.164-.22.034-.44.027-.66.005a20.9 20.9 0 0 1-.9-.117 6.075 6.075 0 0 0-1.28-.073c-.413.034-.82.115-1.226.196a14.95 14.95 0 0 1-.913.17c-.328.05-.655.1-.978.172-.506.115-.942.375-1.34.7-.387.344-.665.779-.907 1.232-.23.446-.377.926-.509 1.407-.105.412-.197.827-.29 1.24a71.14 71.14 0 0 0-.231 1.04 9.465 9.465 0 0 0-.16.932c-.04.272-.015.543.024.814.382 2.087 3.333 1.547 2.952-.54v.066c.023-.218.07-.433.114-.648.07-.336.148-.67.224-1.006.083-.37.165-.743.258-1.112.073-.273.15-.548.273-.804.058-.116.128-.232.195-.34.01-.028.013-.043.069-.058.249-.063.507-.083.759-.129.35-.054.697-.119 1.043-.194.26-.052.52-.101.782-.141.224-.017.449.004.67.04.367.057.736.102 1.105.142.482.04.966.043 1.445-.04.042-.008.877-.138.413-.129-.319-.065-.697-.228-.824-.558.13.236.19.506.3.751.14.363.282.724.411 1.09.081.232.158.466.205.707.018.1.034.202.01.301a3.173 3.173 0 0 1-.408.846c-.189.297-.386.591-.646.832-.184.147-.384.288-.613.35a6.152 6.152 0 0 1-1.078.158 7.657 7.657 0 0 1-1.296-.027 13.962 13.962 0 0 1-1.48-.257c-.512-.111-1.02-.24-1.522-.392a3.524 3.524 0 0 1-.626-.274c-1.804-1.117-3.383 1.434-1.58 2.55z"/>
    <path style="fill:#e5e9f0;fill-opacity:1;stroke:none;stroke-width:3;stroke-linecap:round;stroke-linejoin:round;stroke-dasharray:none;stroke-dashoffset:0;stroke-opacity:1" d="M319.44 228.312c.353.1.72.139 1.085.178a10.115 10.115 0 0 1 1.94.394c.35.111.694.238 1.04.361.422.163.848.317 1.283.443.548.169 1.113.195 1.68.147.562-.062 1.084-.258 1.578-.523.413-.23.776-.531 1.12-.852.287-.28.553-.582.825-.878.274-.297.543-.6.8-.912.29-.352.532-.738.743-1.141.227-.427.358-.881.426-1.356.057-.703-.206-1.3-.64-1.833-.25-.284-.565-.496-.848-.744-.222-.202-.432-.416-.65-.624a10.875 10.875 0 0 0-.722-.623 4.157 4.157 0 0 0-.936-.538c-.384-.16-.791-.223-1.204-.24-.382 0-.75.101-1.115.198a.21.21 0 0 1-.165.006c-.124-.043-.245-.096-.366-.148a6.375 6.375 0 0 0-.783-.31 4.19 4.19 0 0 0-1.041-.165c-.453 0-.893.098-1.32.241-.432.15-.827.378-1.206.63a12.53 12.53 0 0 0-.832.62c-.186.151-.37.306-.553.461a9.068 9.068 0 0 0-.41.37c-.082.082-.168.161-.253.24-.121.122-.054.05-.198.218-1.317 1.662 1.034 3.526 2.351 1.863-.085.095-.05.062-.097.105.086-.082.173-.161.258-.244.094-.089.187-.178.286-.26.165-.14.33-.28.498-.416.2-.16.403-.317.615-.461.168-.113.337-.226.53-.294.077-.032.22-.059.259-.074.043-.002.166.014.238.034.168.031.313.149.475.2.36.153.725.297 1.113.358.46.06.92.054 1.37-.074.021-.006.436-.094.295-.099-.072-.018.092.001.112.015.087.031.167.08.241.136.17.127.326.275.485.417.255.244.502.497.767.731.18.154.365.303.55.45a.65.65 0 0 1-.087-.466c.054-.16-.072.278-.107.297-.11.218-.243.423-.396.614-.222.271-.457.531-.693.79-.222.241-.44.486-.67.72a2.9 2.9 0 0 1-.515.413 1.18 1.18 0 0 1-.423.163c-.19.03-.374.013-.559-.046-.374-.105-.736-.249-1.101-.384-.398-.142-.794-.288-1.198-.413a13.125 13.125 0 0 0-1.251-.315c-.403-.078-.808-.15-1.218-.184-.155-.017-.392-.05-.514-.06-2.025-.631-2.918 2.233-.893 2.864z"/>
    <path style="fill:#e5e9f0;fill-opacity:1;stroke:none;stroke-width:3;stroke-linecap:round;stroke-linejoin:round;stroke-dasharray:none;stroke-dashoffset:0;stroke-opacity:1" d="M315.452 220.996c.039-.16.106-.31.168-.463.115-.28.26-.546.399-.814.142-.272.281-.545.43-.814.104-.188.218-.37.351-.54.14-.103-.062.05-.112.078-.162.042.439.015.456.015.475.01.944-.05 1.405-.157.478-.12.914-.34 1.33-.596.248-.155.493-.314.747-.458.13-.073.27-.126.413-.166.068-.02.121-.028.089 0-.012.018.014.03.07.072.093.08.173.175.254.266.13.162.256.328.377.497.153.21.289.43.417.656.135.233.236.483.34.731.104.254.199.511.299.766.073.192.139.386.207.578.036.105.069.21.097.317.015.105.044.207.071.31.579 2.04 3.465 1.222 2.886-.819.015.075-.044-.221-.056-.254a7.11 7.11 0 0 0-.17-.557c-.08-.224-.156-.45-.243-.671-.108-.277-.21-.556-.324-.83a9.038 9.038 0 0 0-1.09-1.982c-.183-.252-.37-.502-.572-.739-.259-.289-.53-.57-.857-.785-.407-.257-.84-.47-1.325-.532-.447-.05-.894-.038-1.326.1-.365.111-.72.25-1.052.44-.28.163-.555.334-.829.508-.15.094-.297.188-.47.236-.22.068-.456.064-.685.069-.482 0-.969.003-1.434.148-.509.199-.952.484-1.286.924a7.199 7.199 0 0 0-.606.927c-.159.29-.31.583-.463.877-.183.351-.368.702-.517 1.07-.16.398-.315.803-.367 1.232-.255 2.106 2.723 2.466 2.978.36zM332.851 229.502c.022-.009.147-.053.207-.07.074-.026.15-.036.227-.048 2.094-.341 1.61-3.302-.483-2.96-.216.035-.43.077-.638.144-.341.11-.675.242-.977.438-1.765 1.177-.1 3.673 1.664 2.496zM294.406 232.745l.104.035c2.01.68 2.97-2.162.961-2.842l-.085-.028c-2.005-.694-2.985 2.142-.98 2.835zM322.183 233.926l.077.001c2.122.03 2.164-2.97.042-3h-.09c-2.122-.02-2.15 2.98-.028 3zM265.33 237.7l-.01.002c2.082.41 2.662-2.533.581-2.944l-.175-.031c-2.103-.28-2.498 2.694-.395 2.974zM279.847 231.383c.093.012.186.024.277.043 2.081.41 2.66-2.534.579-2.943a6.102 6.102 0 0 0-.448-.072c-2.102-.289-2.51 2.684-.408 2.972zM241.349 234.935c-.065.026-.135.035-.204.047 2.121.022 2.151-2.978.03-3-.247.003-.494.013-.731.092-2.023.64-1.118 3.5.905 2.86zM256.191 220.452c0 .002.01.004.015.007l.079.026c2.02.65 2.938-2.207.918-2.856-.197-.063-.093-.031-.313-.094-2.063-.494-2.762 2.423-.699 2.917zM249.712 214.61l.019.009c2 .704 2.997-2.125.996-2.83l-.13-.044c-2.026-.627-2.912 2.239-.886 2.866zM268.728 223.02l.024.008c2.04.585 2.868-2.298.829-2.884a23.813 23.813 0 0 1-.138-.038c-2.06-.506-2.775 2.408-.715 2.914zM273.62 236.122l.064.008c2.105.264 2.479-2.712.374-2.976l-.12-.015c-2.109-.225-2.427 2.758-.317 2.983zM692.898 244.18c.014.22.038.44.058.66.018.231.042.462.082.69.11.577.468 1.001.966 1.289.087.046.18.08.266.128 1.866 1.01 3.293-1.629 1.428-2.638a3.432 3.432 0 0 0-.308-.151c.3.187.537.466.597.823-.03-.134-.024-.276-.043-.411-.017-.189-.037-.377-.051-.566-.125-2.118-3.12-1.942-2.995.176zM687.5 248.539c.033-.017.376-.152.248-.1v.003c2.076-.438 1.455-3.374-.62-2.935l-.162.037a5.44 5.44 0 0 0-.757.288c-1.914.915-.62 3.622 1.294 2.707zM670.123 243.226c.203.292.457.541.72.78l.224.198c1.59 1.404 3.576-.845 1.986-2.249l-.202-.178a3.306 3.306 0 0 1-.246-.236c-1.191-1.755-3.673-.07-2.482 1.685zM673.002 249.197c.183-.051-.028 0 .07-.014 2.09-.365 1.573-3.32-.517-2.955a3.127 3.127 0 0 0-.553.141c-2 .707-1 3.536 1 2.828zM700.759 245.511l.04.011c2.05.548 2.824-2.35.775-2.898a54.635 54.635 0 0 0-.1-.026c-2.061-.505-2.775 2.409-.715 2.913zM699.758 251.136l.1.034c2.017.658 2.948-2.194.931-2.852-.174-.057-.084-.029-.269-.084-2.051-.538-2.813 2.363-.762 2.902zM677.516 248.118l.034.017c1.931.876 3.17-1.856 1.239-2.732l-.154-.069c-1.968-.79-3.087 1.993-1.12 2.784zM682.181 251.925c-.059.056.026.012.069-.005 1.969-.79.853-3.574-1.116-2.784-.282.115-.564.237-.804.428-1.67 1.31.181 3.67 1.85 2.361zM687.713 252.077l.067.018c2.045.565 2.843-2.327.799-2.891l-.086-.024c-2.049-.552-2.829 2.345-.78 2.897zM665.555 246.562l.039-.006c2.09-.364 1.576-3.32-.514-2.956l-.12.021c-2.079.42-1.485 3.36.595 2.94zM704.902 247.491l.122-.015c2.105-.266 1.728-3.242-.376-2.976-.158.02-.077.01-.244.033-2.091.352-1.594 3.31.498 2.958zM693.78 251.473l-.05.021c0 .002 0 .004-.01.006 2.078-.424 1.478-3.364-.6-2.94-.285.065-.145.027-.422.114-1.98.763-.9 3.562 1.079 2.8zM537.082 217.367a6.42 6.42 0 0 1-.26-.58c-.17-.426-.344-.851-.52-1.276-.165-.387-.323-.777-.487-1.164-.08-.195-.172-.385-.253-.58-.82-1.955-3.587-.796-2.766 1.16.083.197.17.39.255.586.161.382.317.766.48 1.147.173.42.345.84.513 1.261.15.365.307.73.514 1.067 1.146 1.785 3.67.164 2.524-1.621zM537.302 231.08c.049.327.121.65.194.973.104.427.206.854.294 1.285.097.481.172.966.24 1.452.066.477.124.955.18 1.433a168.527 168.527 0 0 1 .26 2.437c.03.308.061.615.09.923.021.24.049.48.073.721.015.168.031.337.043.505.011.137.02.274.026.412.01.127 0 .05.018.23.232 2.11 3.214 1.782 2.982-.327v.022-.064c-.01-.167-.02-.333-.032-.5a37.257 37.257 0 0 0-.05-.578c-.023-.232-.05-.464-.071-.697l-.091-.938a65.616 65.616 0 0 0-.455-3.995 27.486 27.486 0 0 0-.271-1.633 34.24 34.24 0 0 0-.308-1.346c-.055-.243-.11-.486-.15-.732-.294-2.1-3.265-1.684-2.97.417zM1084.942 225.978c.028.974.1 1.947.154 2.92.09 1.587.126 3.176.147 4.765.014 1.775-.02 3.55-.078 5.323-.05 1.618-.163 3.234-.27 4.85-.141 2.116 2.852 2.315 2.993.198.11-1.65.225-3.299.276-4.952.058-1.82.094-3.64.079-5.46-.022-1.631-.06-3.263-.151-4.892-.05-.9-.112-1.799-.15-2.7.037-2.12-2.963-2.173-3-.052z"/>
    <circle style="fill:#e5e9f0;stroke:#000" cx="1083.896" cy="200.771" r=".133"/>
    <path style="fill:#e5e9f0;fill-opacity:1;stroke:none;stroke-width:3;stroke-linecap:round;stroke-linejoin:round;stroke-dasharray:none;stroke-dashoffset:0;stroke-opacity:1" d="M1083.58 202.303c.184-.63.403-1.247.629-1.861.262-.698.54-1.388.826-2.076.202-.475.401-.951.623-1.418.17-.339.333-.682.498-1.025a.394.394 0 0 1 .046-.07c1.284-1.689-1.103-3.506-2.387-1.818a3.61 3.61 0 0 0-.366.593c-.165.345-.33.691-.501 1.034a38.25 38.25 0 0 0-.684 1.555c-.301.725-.595 1.454-.871 2.189-.25.68-.491 1.364-.694 2.06-.592 2.038 2.29 2.874 2.88.837z"/>
    <path style="fill:#e5e9f0;fill-opacity:1;stroke:none;stroke-width:3;stroke-linecap:round;stroke-linejoin:round;stroke-dasharray:none;stroke-dashoffset:0;stroke-opacity:1" d="M1084.86 195.39c.335.58.638 1.176.927 1.779.362.78.712 1.564 1.05 2.354.25.583.497 1.167.748 1.749.84 1.948 3.595.761 2.755-1.187-.25-.581-.497-1.164-.745-1.746a88.31 88.31 0 0 0-1.104-2.468 28.548 28.548 0 0 0-1.054-2.017c-1.087-1.822-3.664-.286-2.577 1.536zM1082.19 166.9c.099.572.198 1.143.282 1.718.109.798.199 1.598.27 2.4.068.88.128 1.759.172 2.64.046.874.075 1.75.094 2.625.018.905.03 1.81.042 2.716.015.894.031 1.787.04 2.68.01.895.01 1.79.012 2.685.01.814.01 1.628 0 2.441-.013.71-.04 1.42-.065 2.129 0 .113-.01.226-.01.339-.056 2.12 2.943 2.2 3 .079 0-.103.01-.207.01-.31.025-.734.053-1.467.066-2.202.01-.829.01-1.658 0-2.487 0-.9 0-1.801-.012-2.702-.01-.898-.025-1.796-.04-2.694-.013-.913-.024-1.826-.043-2.739a84.594 84.594 0 0 0-.097-2.712c-.047-.92-.108-1.838-.18-2.757a54.02 54.02 0 0 0-.29-2.562 50.355 50.355 0 0 0-.274-1.675c-.275-2.104-3.25-1.716-2.975.388zM1083.142 246.32c-.406.26-.788.556-1.165.856-.645.517-1.195 1.134-1.725 1.764-.69.823-1.258 1.735-1.806 2.656-.598 1.038-1.114 2.12-1.6 3.215-.47 1.06-.856 2.153-1.202 3.258-.35 1.125-.577 2.281-.77 3.441-.165 1.086-.289 2.178-.423 3.268-.122.983-.216 1.969-.321 2.954-.074.719-.156 1.437-.222 2.157-.192 2.112 2.796 2.384 2.988.272.064-.705.145-1.408.217-2.111.103-.969.196-1.938.315-2.904.13-1.05.25-2.1.406-3.146.169-1.023.366-2.043.673-3.034.311-.998.658-1.984 1.083-2.94.436-.985.899-1.96 1.435-2.897.464-.782.94-1.56 1.525-2.26.4-.478.81-.951 1.295-1.346.293-.234.59-.465.904-.67 1.791-1.135.185-3.669-1.607-2.533zM1087.828 248.622c.377.309.735.635 1.068.99.553.619 1 1.32 1.443 2.02.511.837.981 1.698 1.44 2.566a49.88 49.88 0 0 1 1.35 2.815c.44.991.826 2.005 1.194 3.025.333.955.631 1.92.9 2.896.218.804.397 1.619.552 2.437.13.708.25 1.418.354 2.13.078.57.143 1.14.204 1.713.022.222.048.443.074.665.254 2.106 3.233 1.747 2.979-.359a32.91 32.91 0 0 1-.07-.626 62.193 62.193 0 0 0-.22-1.832 63.19 63.19 0 0 0-.374-2.251 35.145 35.145 0 0 0-.607-2.673c-.29-1.05-.61-2.09-.97-3.119a48.23 48.23 0 0 0-1.28-3.235 52.81 52.81 0 0 0-1.435-2.988 49.492 49.492 0 0 0-1.559-2.772c-.546-.86-1.104-1.718-1.794-2.47-.4-.42-.82-.82-1.27-1.186-1.593-1.4-3.573.854-1.98 2.254zM1080.513 234.419c-.232.519-.49 1.025-.753 1.529-.654 1.162-1.371 2.287-2.077 3.417-.861 1.398-1.8 2.744-2.75 4.081a407.122 407.122 0 0 1-2.664 3.695c-.53.724-1.06 1.45-1.586 2.178-1.24 1.72 1.194 3.475 2.434 1.754.522-.724 1.049-1.445 1.576-2.165a410.715 410.715 0 0 0 2.685-3.725c.984-1.386 1.957-2.78 2.85-4.229.745-1.194 1.504-2.383 2.189-3.614.294-.562.582-1.128.84-1.708.857-1.94-1.887-3.154-2.745-1.213zM1091.681 226.936a4.77 4.77 0 0 0 .873-.535c.456-.36.868-.772 1.266-1.194.472-.5.865-1.065 1.24-1.64 1.153-1.78-1.364-3.412-2.518-1.632-.275.425-.56.846-.907 1.217-.281.3-.57.591-.887.854-.1.079-.202.15-.317.203-1.929.884-.678 3.611 1.25 2.727zM1077.395 222.74c.18.378.443.706.704 1.03.392.48.82.928 1.254 1.37.463.455.949.887 1.439 1.313l.23.196c1.619 1.373 3.56-.916 1.941-2.288l-.203-.172c-.431-.375-.86-.755-1.269-1.154a17.608 17.608 0 0 1-1.058-1.15c-.117-.144-.244-.286-.336-.449-.922-1.91-3.624-.606-2.702 1.304z"/>
</svg>
